<?xml version="1.0" standalone="no"?>
<!DOCTYPE svg PUBLIC "-//W3C//DTD SVG 20010904//EN"
 "http://www.w3.org/TR/2001/REC-SVG-20010904/DTD/svg10.dtd">
<svg version="1.0" xmlns="http://www.w3.org/2000/svg"
 width="498.000000pt" height="498.000000pt" viewBox="0 0 498.000000 498.000000"
 preserveAspectRatio="xMidYMid meet">
<metadata>
Created by potrace 1.14, written by Peter Selinger 2001-2017
</metadata>
<g transform="translate(0.000000,498.000000) scale(0.100000,-0.100000)"
fill="#000000" stroke="none">
<path d="M3821 4415 c-13 -25 -52 -74 -87 -109 -106 -108 -255 -197 -559 -336
-206 -93 -407 -195 -497 -251 -148 -91 -296 -218 -364 -310 -20 -27 -39 -49
-43 -49 -4 0 -17 9 -28 20 -39 35 -157 110 -230 145 -110 52 -258 94 -389 109
-100 12 -142 15 -259 21 -263 13 -313 15 -375 21 -60 5 -141 16 -215 29 -65
12 -224 70 -293 107 -83 45 -92 40 -73 -38 7 -26 10 -48 9 -50 -2 -2 -32 4
-65 13 -34 10 -66 14 -70 10 -4 -5 0 -38 10 -74 9 -36 16 -67 15 -69 -2 -1
-30 4 -63 12 -88 20 -88 20 -81 -23 4 -21 9 -46 12 -56 5 -16 0 -18 -33 -15
-37 3 -38 2 -36 -31 1 -32 0 -33 -28 -27 -30 6 -33 1 -29 -37 1 -14 -4 -16
-24 -11 -33 8 -33 -1 -5 -109 11 -45 22 -89 24 -97 2 -8 51 -206 109 -440 152
-615 261 -1065 296 -1220 43 -195 101 -441 106 -454 3 -8 31 -22 61 -31 58
-17 203 -54 238 -61 11 -2 55 -11 98 -20 42 -8 90 -18 105 -20 15 -3 83 -16
152 -29 69 -13 139 -26 155 -29 17 -2 68 -12 115 -21 47 -9 99 -18 115 -21 17
-3 62 -12 100 -20 39 -8 79 -16 90 -18 350 -68 566 -125 708 -186 48 -21 106
-53 130 -72 49 -40 105 -65 116 -52 4 5 16 30 25 57 21 57 85 122 146 150 90
41 226 34 363 -19 20 -8 39 -14 41 -14 2 0 7 18 11 41 6 34 22 56 99 133 180
184 319 274 661 431 83 38 396 195 472 236 34 19 85 47 115 63 92 50 262 167
287 199 27 32 27 31 -19 103 -12 19 -10 25 13 50 15 16 27 35 27 42 0 7 -18
39 -39 71 -29 43 -37 61 -30 74 7 12 3 30 -16 64 -22 39 -25 50 -15 68 10 18
9 29 -5 54 -10 21 -14 43 -10 61 5 23 -2 45 -29 95 -34 61 -36 67 -22 93 14
26 12 33 -28 112 -68 135 -403 789 -551 1075 -40 77 -134 262 -210 410 -76
149 -142 276 -148 283 -17 22 -31 13 -56 -33z"/>
</g>
</svg>
